<svg width="18" height="18" viewBox="0 0 18 18" fill="none" xmlns="http://www.w3.org/2000/svg">
<path d="M13.0098 11.255H12.2198L11.9398 10.985C12.9537 9.80908 13.511 8.30772 13.5098 6.75501C13.5098 5.46943 13.1286 4.21272 12.4143 3.1438C11.7001 2.07488 10.6849 1.24176 9.49721 0.749791C8.30949 0.257821 7.00256 0.1291 5.74168 0.379903C4.4808 0.630707 3.32262 1.24977 2.41357 2.15881C1.50453 3.06785 0.885468 4.22604 0.634664 5.48692C0.38386 6.7478 0.512582 8.05473 1.00455 9.24245C1.49652 10.4302 2.32964 11.4453 3.39856 12.1596C4.46748 12.8738 5.72419 13.255 7.00977 13.255C8.61977 13.255 10.0998 12.665 11.2398 11.685L11.5098 11.965V12.755L16.5098 17.745L17.9998 16.255L13.0098 11.255ZM7.00977 11.255C4.51977 11.255 2.50977 9.24501 2.50977 6.75501C2.50977 4.26501 4.51977 2.25501 7.00977 2.25501C9.49977 2.25501 11.5098 4.26501 11.5098 6.75501C11.5098 9.24501 9.49977 11.255 7.00977 11.255Z" fill="#966622"/>
</svg>
